<?xml version="1.0" encoding="UTF-8" standalone="no"?>
<!-- Generator: Adobe Illustrator 19.0.0, SVG Export Plug-In . SVG Version: 6.00 Build 0)  -->

<svg
   xmlns:dc="http://purl.org/dc/elements/1.1/"
   xmlns:cc="http://creativecommons.org/ns#"
   xmlns:rdf="http://www.w3.org/1999/02/22-rdf-syntax-ns#"
   xmlns:svg="http://www.w3.org/2000/svg"
   xmlns="http://www.w3.org/2000/svg"
   xmlns:sodipodi="http://sodipodi.sourceforge.net/DTD/sodipodi-0.dtd"
   xmlns:inkscape="http://www.inkscape.org/namespaces/inkscape"
   version="1.1"
   id="Layer_1"
   x="0px"
   y="0px"
   viewBox="0 0 608.52766 381.62415"
   xml:space="preserve"
   sodipodi:docname="html5_dark.svg"
   inkscape:version="0.92.4 (5da689c313, 2019-01-14)"
   width="608.52765"
   height="381.62415"><metadata
   id="metadata39"><rdf:RDF><cc:Work
       rdf:about=""><dc:format>image/svg+xml</dc:format><dc:type
         rdf:resource="http://purl.org/dc/dcmitype/StillImage" /><dc:title></dc:title></cc:Work></rdf:RDF></metadata><defs
   id="defs37" /><sodipodi:namedview
   pagecolor="#ffffff"
   bordercolor="#666666"
   borderopacity="1"
   objecttolerance="10"
   gridtolerance="10"
   guidetolerance="10"
   inkscape:pageopacity="0"
   inkscape:pageshadow="2"
   inkscape:window-width="1366"
   inkscape:window-height="745"
   id="namedview35"
   showgrid="false"
   inkscape:zoom="0.78873052"
   inkscape:cx="124.86199"
   inkscape:cy="147.07003"
   inkscape:window-x="-8"
   inkscape:window-y="-8"
   inkscape:window-maximized="1"
   inkscape:current-layer="Layer_1"
   fit-margin-top="0"
   fit-margin-left="0"
   fit-margin-right="0"
   fit-margin-bottom="0" />
<g
   id="XMLID_106_"
   transform="matrix(2.3079163,0,0,1.2754253,-41.016935,0)">
	<path
   id="XMLID_107_"
   d="m 22.347,0 c -2.75,0 -4.799,2.241 -4.555,4.98 l 23.184,260.047 c 0.244,2.739 2.611,5.582 5.262,6.318 l 98.381,27.316 c 2.65,0.736 6.986,0.736 9.637,0.002 l 98.68,-27.361 c 2.65,-0.735 5.02,-3.578 5.264,-6.316 L 281.422,4.98 C 281.668,2.241 279.617,0 276.867,0 Z m 209.702,59.641 c -0.219,2.443 -0.598,6.684 -0.842,9.423 l -0.611,6.823 c -0.246,2.738 -0.596,6.654 -0.781,8.701 -0.184,2.048 -0.359,3.723 -0.391,3.723 -0.031,0 -2.307,0 -5.057,0 h -69.76 c -2.75,0 -5.023,0 -5.053,0 -0.03,0 -2.305,0 -5.055,0 h -36.74 c -2.75,0 -4.799,2.241 -4.555,4.98 l 2.143,23.955 c 0.244,2.738 2.695,4.98 5.445,4.98 H 144.5 c 2.75,0 5.025,0 5.055,0 0.03,0 2.303,0 5.053,0 h 57.939 c 2.75,0 7.006,0 9.457,0 2.449,0 4.273,1.999 4.051,4.442 -0.223,2.443 -0.604,6.685 -0.848,9.423 l -6.891,77.228 c -0.246,2.739 -0.557,6.238 -0.691,7.776 -0.137,1.537 -2.416,3.396 -5.066,4.131 l -58.133,16.119 c -2.65,0.734 -4.852,1.342 -4.893,1.351 -0.041,0.009 -2.242,-0.586 -4.893,-1.321 L 86.445,225.227 c -2.65,-0.735 -5.018,-3.578 -5.262,-6.317 l -3.746,-42.045 c -0.244,-2.739 1.807,-4.98 4.557,-4.98 h 5.311 c 2.75,0 7.25,0 10,0 h 7.92 c 2.75,0 5.199,2.241 5.445,4.98 l 1.469,16.459 c 0.244,2.739 2.615,5.566 5.271,6.283 l 27.221,7.351 c 2.654,0.717 4.836,1.304 4.848,1.304 0.012,0 2.193,-0.588 4.848,-1.305 l 27.27,-7.369 c 2.654,-0.717 5.027,-3.545 5.273,-6.283 l 2.957,-32.976 c 0.246,-2.739 -1.803,-4.98 -4.553,-4.98 h -30.666 c -2.75,0 -5.023,0 -5.053,0 -0.03,0 -2.305,0 -5.055,0 H 80.511 c -2.75,0 -5.199,-2.242 -5.443,-4.98 L 67.812,69.063 C 67.568,66.324 67.189,62.084 66.97,59.64 66.753,57.197 68.824,55.198 71.574,55.198 H 144.5 c 2.75,0 5.025,0 5.055,0 0.03,0 2.303,0 5.053,0 h 72.838 c 2.749,0 4.821,1.999 4.603,4.443 z"
   inkscape:connector-curvature="0" />
</g>
<g
   id="g4"
   transform="translate(-2.5579573,84.94663)">
</g>
<g
   id="g6"
   transform="translate(-2.5579573,84.94663)">
</g>
<g
   id="g8"
   transform="translate(-2.5579573,84.94663)">
</g>
<g
   id="g10"
   transform="translate(-2.5579573,84.94663)">
</g>
<g
   id="g12"
   transform="translate(-2.5579573,84.94663)">
</g>
<g
   id="g14"
   transform="translate(-2.5579573,84.94663)">
</g>
<g
   id="g16"
   transform="translate(-2.5579573,84.94663)">
</g>
<g
   id="g18"
   transform="translate(-2.5579573,84.94663)">
</g>
<g
   id="g20"
   transform="translate(-2.5579573,84.94663)">
</g>
<g
   id="g22"
   transform="translate(-2.5579573,84.94663)">
</g>
<g
   id="g24"
   transform="translate(-2.5579573,84.94663)">
</g>
<g
   id="g26"
   transform="translate(-2.5579573,84.94663)">
</g>
<g
   id="g28"
   transform="translate(-2.5579573,84.94663)">
</g>
<g
   id="g30"
   transform="translate(-2.5579573,84.94663)">
</g>
<g
   id="g32"
   transform="translate(-2.5579573,84.94663)">
</g>
<text
   xml:space="preserve"
   style="font-style:normal;font-variant:normal;font-weight:normal;font-stretch:normal;font-size:37.33333206px;line-height:1.25;font-family:Forte;-inkscape-font-specification:'Forte, Normal';font-variant-ligatures:normal;font-variant-caps:normal;font-variant-numeric:normal;text-align:start;letter-spacing:0px;word-spacing:0px;writing-mode:lr-tb;text-anchor:start;fill:#000000;fill-opacity:1;stroke:none"
   x="167.33531"
   y="347.39368"
   id="text43"><tspan
     sodipodi:role="line"
     id="tspan41"
     x="167.33531"
     y="380.38928"></tspan><tspan
     sodipodi:role="line"
     x="167.33531"
     y="427.05594"
     id="tspan45" /></text>
<text
   xml:space="preserve"
   style="font-style:normal;font-variant:normal;font-weight:normal;font-stretch:normal;font-size:107.84056854px;line-height:1.25;font-family:Forte;-inkscape-font-specification:'Forte, Normal';font-variant-ligatures:normal;font-variant-caps:normal;font-variant-numeric:normal;text-align:start;letter-spacing:0px;word-spacing:0px;writing-mode:lr-tb;text-anchor:start;fill:#803300;fill-opacity:1;stroke:none;stroke-width:2.88858628"
   x="158.32292"
   y="353.522"
   id="text49"
   transform="scale(0.93405768,1.0705977)"><tspan
     sodipodi:role="line"
     id="tspan47"
     x="158.32292"
     y="353.522"
     style="fill:#803300;stroke-width:2.88858628">HTML 5</tspan></text>
</svg>