<?xml version="1.0" encoding="UTF-8" standalone="no"?>
<!-- Generator: Adobe Illustrator 19.0.0, SVG Export Plug-In . SVG Version: 6.00 Build 0)  -->

<svg
   xmlns:dc="http://purl.org/dc/elements/1.1/"
   xmlns:cc="http://creativecommons.org/ns#"
   xmlns:rdf="http://www.w3.org/1999/02/22-rdf-syntax-ns#"
   xmlns:svg="http://www.w3.org/2000/svg"
   xmlns="http://www.w3.org/2000/svg"
   xmlns:sodipodi="http://sodipodi.sourceforge.net/DTD/sodipodi-0.dtd"
   xmlns:inkscape="http://www.inkscape.org/namespaces/inkscape"
   version="1.1"
   id="Capa_1"
   x="0px"
   y="0px"
   viewBox="0 0 511.99928 586.09245"
   xml:space="preserve"
   sodipodi:docname="coding.svg"
   width="511.9993"
   height="586.09247"
   inkscape:version="0.92.4 (5da689c313, 2019-01-14)"><metadata
   id="metadata57"><rdf:RDF><cc:Work
       rdf:about=""><dc:format>image/svg+xml</dc:format><dc:type
         rdf:resource="http://purl.org/dc/dcmitype/StillImage" /><dc:title /></cc:Work></rdf:RDF></metadata><defs
   id="defs55" /><sodipodi:namedview
   pagecolor="#ffffff"
   bordercolor="#666666"
   borderopacity="1"
   objecttolerance="10"
   gridtolerance="10"
   guidetolerance="10"
   inkscape:pageopacity="0"
   inkscape:pageshadow="2"
   inkscape:window-width="1366"
   inkscape:window-height="745"
   id="namedview53"
   showgrid="false"
   fit-margin-top="0"
   fit-margin-left="0"
   fit-margin-right="0"
   fit-margin-bottom="0"
   inkscape:zoom="0.46093569"
   inkscape:cx="180.06743"
   inkscape:cy="330.09144"
   inkscape:window-x="-8"
   inkscape:window-y="-8"
   inkscape:window-maximized="1"
   inkscape:current-layer="Capa_1" />
<polygon
   style="fill:#f5c86e"
   points="311.813,45.548 331.925,33.458 359.279,60.812 347.189,80.924 359.959,111.737 382.737,117.412 382.737,156.088 359.959,161.763 347.189,192.576 359.279,212.688 331.925,240.042 311.813,227.952 281,240.722 275.325,263.5 236.649,263.5 230.974,240.722 200.161,227.952 180.049,240.042 152.695,212.688 164.785,192.576 152.015,161.763 129.237,156.088 129.237,117.412 152.015,111.737 164.785,80.924 152.695,60.812 180.049,33.458 200.161,45.548 230.974,32.778 236.649,10 275.325,10 281,32.778 "
   id="polygon2"
   transform="translate(-0.00107298)" />
<polygon
   style="fill:#a5dc69"
   points="10.001,352.178 66.59,319.565 153.09,469.387 96.501,502 "
   id="polygon4"
   transform="translate(-0.00107298)" />
<path
   style="fill:#ffcdac"
   d="m 146.58293,458 h 162.226 c 33.686,0 65.946,-13.599 89.467,-37.713 l 95.447,-97.856 c 11.841,-12.139 10.849,-31.787 -2.153,-42.673 v 0 c -11.614,-9.724 -28.743,-8.923 -39.4,1.842 l -86.597,87.477 c -7.248,7.322 -17.123,11.442 -27.426,11.442 h -76.952 l -24.581,-0.076 h 76.119 c 14.602,0 26.829,-11.066 28.28,-25.596 v 0 c 1.395,-13.968 -7.616,-26.862 -21.213,-30.353 l -57.83,-14.847 c -34.566,-8.874 -71.044,-6.694 -104.30701,6.235 l -76.117993,29.586 z"
   id="path6"
   inkscape:connector-curvature="0" />
<path
   d="m 126.81893,165.792 17.887,4.456 8.90999,21.499 -9.49199,15.79 c -2.366,3.935 -1.747,8.976 1.5,12.223 l 27.35399,27.354 c 3.247,3.246 8.287,3.865 12.22301,1.5 l 15.79,-9.492 21.499,8.91 4.456,17.887 c 1.11,4.456 5.112,7.583 9.704,7.583 h 38.676 c 4.592,0 8.593,-3.127 9.704,-7.583 l 4.456,-17.887 21.499,-8.91 15.79,9.492 c 3.935,2.365 8.975,1.747 12.223,-1.5 l 27.354,-27.354 c 3.247,-3.247 3.865,-8.288 1.5,-12.223 l -9.492,-15.79 8.91,-21.499 17.887,-4.456 c 4.456,-1.11 7.583,-5.112 7.583,-9.704 v -38.677 c 0,-4.592 -3.127,-8.593 -7.583,-9.704 l -17.887,-4.456 -8.91,-21.499 9.492,-15.79 c 2.366,-3.936 1.747,-8.976 -1.5,-12.223 l -27.354,-27.354 c -3.247,-3.247 -8.289,-3.865 -12.223,-1.5 l -15.79,9.492 -21.499,-8.91 -4.456,-17.887 c -1.113,-4.453 -5.114,-7.58 -9.706,-7.58 h -38.676 c -4.592,0 -8.593,3.127 -9.704,7.583 l -4.456,17.887 -21.499,8.91 -15.79,-9.492 c -3.93601,-2.366 -8.97701,-1.748 -12.22301,1.5 l -27.35399,27.354 c -3.247,3.247 -3.866,8.288 -1.5,12.223 l 9.49199,15.79 -8.90999,21.499 -17.887,4.456 c -4.456,1.11 -7.583,5.112 -7.583,9.704 v 38.677 c 0.002,4.589 3.129,8.591 7.585,9.701 z m 12.417,-40.566 15.19499,-3.785 c 3.076,-0.767 5.607,-2.946 6.821,-5.875 l 12.77,-30.813 c 1.214,-2.93 0.966,-6.262 -0.667,-8.98 l -8.063,-13.415 16.30301,-16.302 13.414,8.063 c 2.718,1.633 6.05,1.882 8.98,0.667 l 30.813,-12.77 c 2.929,-1.214 5.108,-3.745 5.875,-6.821 L 244.46193,20 h 23.047 l 3.786,15.196 c 0.767,3.076 2.946,5.607 5.875,6.821 l 30.813,12.77 c 2.931,1.214 6.263,0.966 8.98,-0.667 l 13.414,-8.063 16.303,16.302 -8.063,13.415 c -1.634,2.718 -1.881,6.05 -0.667,8.98 l 12.77,30.813 c 1.214,2.929 3.745,5.108 6.821,5.875 l 15.195,3.785 v 23.048 l -15.195,3.785 c -3.076,0.767 -5.607,2.946 -6.821,5.875 l -12.77,30.813 c -1.214,2.93 -0.966,6.262 0.667,8.98 l 8.063,13.414 -16.303,16.303 -13.414,-8.063 c -2.718,-1.633 -6.05,-1.882 -8.98,-0.667 l -30.813,12.77 c -2.929,1.214 -5.108,3.745 -5.875,6.821 l -3.786,15.196 h -23.047 l -3.786,-15.196 c -0.767,-3.076 -2.946,-5.607 -5.875,-6.821 l -30.813,-12.77 c -2.931,-1.214 -6.263,-0.966 -8.98,0.667 l -13.414,8.063 -16.30301,-16.303 8.063,-13.414 c 1.634,-2.718 1.881,-6.05 0.667,-8.98 l -12.77,-30.813 c -1.214,-2.929 -3.745,-5.108 -6.821,-5.875 l -15.19499,-3.785 z"
   id="path8"
   inkscape:connector-curvature="0" />
<path
   d="m 511.94993,300.12 c -0.547,-10.844 -5.636,-21.061 -13.96,-28.03 -15.479,-12.956 -38.726,-11.871 -52.926,2.475 l -86.597,87.478 c -3.155,3.187 -7.037,5.57 -11.25,6.984 1.975,-4.026 3.274,-8.468 3.746,-13.187 1.899,-19.021 -10.161,-36.278 -28.677,-41.032 l -57.83,-14.847 c -36.813,-9.453 -74.994,-7.169 -110.41701,6.601 l -68.122993,26.479 -10.667,-18.477 c -2.76,-4.78 -8.872,-6.42 -13.653,-3.664 l -56.589,32.614 c -2.299,1.325 -3.978,3.51 -4.66499998,6.072 -0.688,2.563 -0.329,5.294 0.99799998,7.592 l 27.419,47.491 c 2.761,4.782 8.877,6.422 13.66,3.66 4.783,-2.762 6.422,-8.877 3.66,-13.66 l -22.415,-38.824 39.261,-22.627 76.500003,132.503 -39.261,22.626 -19.377003,-33.563 c -2.761,-4.782 -8.878,-6.423 -13.66,-3.66 -4.783,2.762 -6.422,8.877 -3.66,13.66 l 24.373,42.216 c 1.852,3.208 5.213,5.002 8.669,5.002 1.694,0 3.411,-0.432 4.984003,-1.338 l 56.58899,-32.612 c 2.299,-1.325 3.978,-3.509 4.665,-6.072 0.352,-1.309 0.426,-2.662 0.241,-3.979 h 28.51201 c 5.523,0 10,-4.478 10,-10 0,-5.522 -4.477,-10 -10,-10 H 152.28792 L 96.033927,350.566 161.28492,325.203 c 31.50401,-12.243 65.46001,-14.273 98.19801,-5.87 l 57.83,14.847 c 8.877,2.28 14.66,10.554 13.749,19.673 -0.945,9.458 -8.825,16.591 -18.329,16.591 h -76.12 c -5.517,0 -9.992,4.468 -10,9.984 -0.008,5.516 4.452,9.998 9.969,10.016 l 24.612,0.076 h 76.952 c 12.882,0 25.469,-5.251 34.533,-14.406 l 86.597,-87.478 c 6.942,-7.014 18.308,-7.543 25.874,-1.209 4.129,3.457 6.553,8.323 6.825,13.702 0.272,5.379 -1.65,10.465 -5.411,14.32 l -95.447,97.856 c -21.506,22.049 -51.506,34.695 -82.308,34.695 h -46.809 c -5.523,0 -10,4.478 -10,10 0,5.522 4.477,10 10,10 h 46.809 c 36.159,0 71.378,-14.846 96.626,-40.73 l 95.447,-97.856 c 7.581,-7.773 11.616,-18.451 11.068,-29.294 z"
   id="path10"
   inkscape:connector-curvature="0" />
<path
   d="m 225.49993,448 c -2.63,0 -5.21,1.069 -7.07,2.93 -1.86,1.86 -2.93,4.44 -2.93,7.07 0,2.63 1.07,5.21 2.93,7.069 1.86,1.86 4.44,2.931 7.07,2.931 2.63,0 5.21,-1.07 7.07,-2.931 1.86,-1.859 2.93,-4.439 2.93,-7.069 0,-2.63 -1.07,-5.21 -2.93,-7.07 -1.86,-1.86 -4.44,-2.93 -7.07,-2.93 z"
   id="path12"
   inkscape:connector-curvature="0" />
<path
   d="m 61.809927,422.6 c -1.86,-1.859 -4.43,-2.93 -7.07,-2.93 -2.63,0 -5.21,1.07 -7.07,2.93 -1.86,1.87 -2.93,4.44 -2.93,7.07 0,2.64 1.07,5.21 2.93,7.07 1.87,1.869 4.44,2.939 7.07,2.939 2.63,0 5.21,-1.07 7.07,-2.939 1.87,-1.86 2.93,-4.431 2.93,-7.07 0,-2.63 -1.06,-5.2 -2.93,-7.07 z"
   id="path14"
   inkscape:connector-curvature="0" />
<path
   d="m 203.10293,169.258 c 1.953,1.953 4.512,2.929 7.071,2.929 2.559,0 5.119,-0.976 7.071,-2.929 3.905,-3.905 3.905,-10.237 0,-14.143 l -18.366,-18.365 18.366,-18.365 c 3.905,-3.905 3.905,-10.237 0,-14.143 -3.905,-3.905 -10.237,-3.905 -14.143,0 l -25.43701,25.437 c -3.905,3.905 -3.905,10.237 0,14.143 z"
   id="path16"
   inkscape:connector-curvature="0" />
<path
   d="m 294.75493,169.258 c 1.953,1.953 4.512,2.929 7.071,2.929 2.559,0 5.119,-0.976 7.071,-2.929 l 25.437,-25.437 c 3.905,-3.905 3.905,-10.237 0,-14.143 l -25.437,-25.437 c -3.905,-3.905 -10.237,-3.905 -14.143,0 -3.905,3.905 -3.905,10.237 0,14.143 l 18.366,18.365 -18.366,18.365 c -3.904,3.907 -3.904,10.239 10e-4,14.144 z"
   id="path18"
   inkscape:connector-curvature="0" />
<path
   d="m 232.97593,175.929 c 1.591,0.935 3.335,1.38 5.057,1.38 3.429,0 6.768,-1.765 8.631,-4.935 l 35.916,-61.115 c 2.798,-4.761 1.207,-10.89 -3.555,-13.688 -4.761,-2.798 -10.89,-1.206 -13.688,3.555 l -35.916,61.115 c -2.798,4.761 -1.207,10.89 3.555,13.688 z"
   id="path20"
   inkscape:connector-curvature="0" />
<g
   id="g22"
   transform="translate(-0.00107298)">
</g>
<g
   id="g24"
   transform="translate(-0.00107298)">
</g>
<g
   id="g26"
   transform="translate(-0.00107298)">
</g>
<g
   id="g28"
   transform="translate(-0.00107298)">
</g>
<g
   id="g30"
   transform="translate(-0.00107298)">
</g>
<g
   id="g32"
   transform="translate(-0.00107298)">
</g>
<g
   id="g34"
   transform="translate(-0.00107298)">
</g>
<g
   id="g36"
   transform="translate(-0.00107298)">
</g>
<g
   id="g38"
   transform="translate(-0.00107298)">
</g>
<g
   id="g40"
   transform="translate(-0.00107298)">
</g>
<g
   id="g42"
   transform="translate(-0.00107298)">
</g>
<g
   id="g44"
   transform="translate(-0.00107298)">
</g>
<g
   id="g46"
   transform="translate(-0.00107298)">
</g>
<g
   id="g48"
   transform="translate(-0.00107298)">
</g>
<g
   id="g50"
   transform="translate(-0.00107298)">
</g>
<text
   xml:space="preserve"
   style="font-style:normal;font-variant:normal;font-weight:normal;font-stretch:normal;font-size:83.29465485px;line-height:1.25;font-family:Forte;-inkscape-font-specification:'Forte, Normal';font-variant-ligatures:normal;font-variant-caps:normal;font-variant-numeric:normal;text-align:start;letter-spacing:0px;word-spacing:0px;writing-mode:lr-tb;text-anchor:start;fill:#aa0000;fill-opacity:1;stroke:none;stroke-width:2.23110676;"
   x="52.548721"
   y="506.44824"
   id="text61"
   transform="scale(0.89013254,1.1234282)"><tspan
     sodipodi:role="line"
     id="tspan59"
     x="52.548721"
     y="506.44824"
     style="fill:#aa0000;stroke-width:2.23110676;">Web Developer</tspan></text>

</svg>