<?xml version="1.0" encoding="UTF-8" standalone="no"?>
<!-- Generator: Adobe Illustrator 18.0.0, SVG Export Plug-In . SVG Version: 6.00 Build 0)  -->

<svg
   xmlns:dc="http://purl.org/dc/elements/1.1/"
   xmlns:cc="http://creativecommons.org/ns#"
   xmlns:rdf="http://www.w3.org/1999/02/22-rdf-syntax-ns#"
   xmlns:svg="http://www.w3.org/2000/svg"
   xmlns="http://www.w3.org/2000/svg"
   xmlns:sodipodi="http://sodipodi.sourceforge.net/DTD/sodipodi-0.dtd"
   xmlns:inkscape="http://www.inkscape.org/namespaces/inkscape"
   version="1.1"
   id="Capa_1"
   x="0px"
   y="0px"
   viewBox="0 0 808.85418 588.37401"
   xml:space="preserve"
   sodipodi:docname="css-3.svg"
   width="808.85419"
   height="588.37402"
   inkscape:version="0.92.4 (5da689c313, 2019-01-14)"><metadata
   id="metadata39"><rdf:RDF><cc:Work
       rdf:about=""><dc:format>image/svg+xml</dc:format><dc:type
         rdf:resource="http://purl.org/dc/dcmitype/StillImage" /><dc:title></dc:title></cc:Work></rdf:RDF></metadata><defs
   id="defs37" /><sodipodi:namedview
   pagecolor="#ffffff"
   bordercolor="#666666"
   borderopacity="1"
   objecttolerance="10"
   gridtolerance="10"
   guidetolerance="10"
   inkscape:pageopacity="0"
   inkscape:pageshadow="2"
   inkscape:window-width="1366"
   inkscape:window-height="745"
   id="namedview35"
   showgrid="false"
   fit-margin-top="0"
   fit-margin-left="0"
   fit-margin-right="0"
   fit-margin-bottom="0"
   inkscape:zoom="0.50138198"
   inkscape:cx="501.15911"
   inkscape:cy="253.3057"
   inkscape:window-x="-8"
   inkscape:window-y="-8"
   inkscape:window-maximized="1"
   inkscape:current-layer="Capa_1" />
<path
   d="M 778.87581,0 H 29.942728 C 12.002958,0 -1.4562624,9.71125 0.12648764,21.18625 L 68.532488,511.56744 c 1.5847,11.46625 17.08781,23.46749 34.476552,26.56625 l 269.66516,47.91873 c 17.36529,3.07876 45.74923,3.09876 63.13992,0.04 l 269.9993,-47.85124 c 17.39264,-3.09 32.89578,-14.9825 34.47851,-26.46875 L 808.72723,21.18625 C 810.30999,9.71125 796.90743,0 778.87581,0 Z M 648.9908,177.01374 c -0.0118,0.075 -0.10357,0.13374 -0.21885,0.14624 -0.11735,0.0125 -0.23057,-0.0262 -0.28138,-0.0962 l -211.27542,55.38623 c -3.00917,0.78875 -4.72479,2.83001 -4.0995,4.87125 0.62918,2.04125 3.42731,3.51375 6.68076,3.51375 h 164.33812 c 8.74224,0 17.07025,2.375 22.91664,6.53375 5.84444,4.15875 8.65432,9.71 7.72616,15.27 l -25.67765,154.09123 c -1.26033,7.56 -9.20143,13.9825 -20.41355,16.50624 l -174.43256,39.2625 c -6.56937,1.48 -13.73083,1.49125 -20.31584,0.0312 L 220.32,434.05744 c -11.28048,-2.5 -19.28802,-8.94125 -20.55617,-16.535 l -11.64005,-69.78499 c -0.6116,-3.66375 1.23884,-7.32125 5.08824,-10.06 3.85136,-2.73999 9.3382,-4.305 15.09863,-4.305 h 48.31291 c 10.38167,0 19.08874,5.00875 20.18687,11.61125 l 7.14193,42.895 120.21267,26.73125 120.7637,-26.97501 14.77036,-88.96248 H 198.24946 c -10.3504,0 -19.04379,-4.98125 -20.17906,-11.5625 l -6.50099,-37.70499 c -0.99264,-5.75126 4.07997,-11.22751 12.43922,-13.43126 l 218.53065,-57.63624 c 2.47964,-0.65375 3.88849,-2.335 3.36872,-4.0175 -0.52173,-1.68125 -2.82551,-2.89249 -5.50444,-2.89249 H 170.32078 c -6.92696,0 -12.73622,-3.34626 -13.45922,-7.75125 l -6.65535,-40.52625 c -0.40057,-2.43875 0.83633,-4.8725 3.40192,-6.69625 2.56562,-1.8225 6.22157,-2.86375 10.05536,-2.86375 h 481.4271 c 3.85527,0 7.52685,1.0525 10.09443,2.89125 2.56756,1.84 3.78687,4.2925 3.35112,6.7425 z"
   id="path2"
   inkscape:connector-curvature="0"
   style="stroke-width:1.56285393" />
<g
   id="g4"
   transform="translate(300.71314,578.39581)">
</g>
<g
   id="g6"
   transform="translate(300.71314,578.39581)">
</g>
<g
   id="g8"
   transform="translate(300.71314,578.39581)">
</g>
<g
   id="g10"
   transform="translate(300.71314,578.39581)">
</g>
<g
   id="g12"
   transform="translate(300.71314,578.39581)">
</g>
<g
   id="g14"
   transform="translate(300.71314,578.39581)">
</g>
<g
   id="g16"
   transform="translate(300.71314,578.39581)">
</g>
<g
   id="g18"
   transform="translate(300.71314,578.39581)">
</g>
<g
   id="g20"
   transform="translate(300.71314,578.39581)">
</g>
<g
   id="g22"
   transform="translate(300.71314,578.39581)">
</g>
<g
   id="g24"
   transform="translate(300.71314,578.39581)">
</g>
<g
   id="g26"
   transform="translate(300.71314,578.39581)">
</g>
<g
   id="g28"
   transform="translate(300.71314,578.39581)">
</g>
<g
   id="g30"
   transform="translate(300.71314,578.39581)">
</g>
<g
   id="g32"
   transform="translate(300.71314,578.39581)">
</g>
<text
   xml:space="preserve"
   style="font-style:normal;font-variant:normal;font-weight:normal;font-stretch:normal;font-size:184.25996399px;line-height:1.25;font-family:Forte;-inkscape-font-specification:'Forte, Normal';font-variant-ligatures:normal;font-variant-caps:normal;font-variant-numeric:normal;text-align:start;letter-spacing:0px;word-spacing:0px;writing-mode:lr-tb;text-anchor:start;fill:#000080;fill-opacity:1;stroke:none;stroke-width:4.93553495"
   x="170.15416"
   y="596.63275"
   id="text43"
   transform="scale(1.0510469,0.95143232)"><tspan
     sodipodi:role="line"
     id="tspan41"
     x="170.15416"
     y="596.63275"
     style="fill:#000080;stroke-width:4.93553495">CSS 3</tspan></text>
</svg>