<?xml version="1.0" encoding="UTF-8" standalone="no"?>
<!-- Created with Inkscape (http://www.inkscape.org/) -->

<svg
   xmlns:dc="http://purl.org/dc/elements/1.1/"
   xmlns:cc="http://creativecommons.org/ns#"
   xmlns:rdf="http://www.w3.org/1999/02/22-rdf-syntax-ns#"
   xmlns:svg="http://www.w3.org/2000/svg"
   xmlns="http://www.w3.org/2000/svg"
   xmlns:sodipodi="http://sodipodi.sourceforge.net/DTD/sodipodi-0.dtd"
   xmlns:inkscape="http://www.inkscape.org/namespaces/inkscape"
   width="629.48151mm"
   height="581.9942mm"
   viewBox="0 0 629.48151 581.9942"
   version="1.1"
   id="svg8"
   inkscape:version="0.92.4 (5da689c313, 2019-01-14)"
   sodipodi:docname="intr.svg">
  <defs
     id="defs2" />
  <sodipodi:namedview
     id="base"
     pagecolor="#ffffff"
     bordercolor="#666666"
     borderopacity="1.0"
     inkscape:pageopacity="0.0"
     inkscape:pageshadow="2"
     inkscape:zoom="0.35"
     inkscape:cx="1123.1428"
     inkscape:cy="311.48658"
     inkscape:document-units="mm"
     inkscape:current-layer="layer1"
     showgrid="false"
     fit-margin-top="0"
     fit-margin-left="0"
     fit-margin-right="0"
     fit-margin-bottom="0"
     inkscape:window-width="1366"
     inkscape:window-height="745"
     inkscape:window-x="-8"
     inkscape:window-y="-8"
     inkscape:window-maximized="1" />
  <metadata
     id="metadata5">
    <rdf:RDF>
      <cc:Work
         rdf:about="">
        <dc:format>image/svg+xml</dc:format>
        <dc:type
           rdf:resource="http://purl.org/dc/dcmitype/StillImage" />
        <dc:title></dc:title>
      </cc:Work>
    </rdf:RDF>
  </metadata>
  <g
     inkscape:label="Layer 1"
     inkscape:groupmode="layer"
     id="layer1"
     transform="translate(204.56071,157.98168)">
    <g
       id="g268"
       transform="matrix(0.26458333,0,0,0.26458333,50.951198,304.86165)">
      <path
         id="path244"
         d="m 504.5,255.191 c 0,-1.032 -0.852,-1.858 -1.883,-1.842 -29.194,0.475 -29.822,11.985 -60.246,11.985 -31.064,0 -31.064,-12 -62.129,-12 -31.063,0 -31.063,12 -62.126,12 -31.062,0 -31.062,-12 -62.124,-12 -31.061,0 -31.061,12 -62.121,12 -31.062,0 -31.062,-12 -62.124,-12 -31.062,0 -31.062,12 -62.125,12 -30.42,0 -31.048,-11.51 -60.238,-11.985 -1.032,-0.017 -1.883,0.81 -1.883,1.842 v 185.803 c 0,1.016 0.824,1.84 1.84,1.84 H 502.66 c 1.017,0 1.841,-0.824 1.841,-1.841 V 255.191 Z"
         inkscape:connector-curvature="0"
         style="fill:#d3effb" />
      <path
         id="path246"
         d="m 504.5,255.191 c 0,-1.032 -0.852,-1.858 -1.883,-1.842 -29.194,0.475 -29.822,11.985 -60.246,11.985 -31.064,0 -31.064,-12 -62.129,-12 -31.063,0 -31.063,12 -62.126,12 -31.062,0 -31.062,-12 -62.124,-12 -31.061,0 -31.061,12 -62.121,12 -31.062,0 -31.062,-12 -62.124,-12 -31.062,0 -31.062,12 -62.125,12 -30.42,0 -31.048,-11.51 -60.238,-11.985 -1.032,-0.017 -1.883,0.81 -1.883,1.842 v 185.803 c 0,1.016 0.824,1.84 1.84,1.84 H 502.66 c 1.017,0 1.841,-0.824 1.841,-1.841 V 255.191 Z"
         inkscape:connector-curvature="0"
         style="fill:#d3effb" />
      <path
         id="path248"
         d="m 502.617,253.35 c -19.76,0.322 -26.433,5.698 -38.117,9.14 v 66.207 c 0,51.991 -42.147,94.138 -94.138,94.138 H 7.5 v 18.16 c 0,1.016 0.824,1.84 1.84,1.84 h 493.319 c 1.016,0 1.841,-0.824 1.841,-1.841 V 255.191 c 0,-1.032 -0.852,-1.858 -1.883,-1.841 z"
         inkscape:connector-curvature="0"
         style="fill:#b1e4f9" />
      <path
         id="path250"
         d="m 351.808,146.735 c -19.431,13.212 -19.051,46.351 -11.989,58.582 7.062,12.231 35.571,29.131 56.728,18.909 l 25.539,-12.34 -1.051,0.508 c -7.369,3.561 -16.237,0.831 -20.329,-6.256 l -7.756,-13.434 c -4.318,-7.479 -1.75,-17.042 5.733,-21.352 l -0.028,0.016 c -7.472,4.304 -17.019,1.741 -21.33,-5.727 l -7.773,-13.462 c -4.092,-7.088 -2.022,-16.132 4.746,-20.734 l 0.965,-0.656 z"
         inkscape:connector-curvature="0"
         style="fill:#dfaca0" />
      <path
         id="path252"
         d="m 436.678,204.837 c 25.376,-12.261 34.876,-43.635 20.443,-67.942 -14.36,-24.184 -45.627,-30.739 -68.886,-14.925 l 23.987,41.547 23.987,41.547 z"
         inkscape:connector-curvature="0"
         style="fill:#707dd3" />
      <path
         id="path254"
         d="m 388.234,121.969 -13.935,9.475 c -6.768,4.602 -8.839,13.646 -4.746,20.734 l 7.764,13.448 c 4.315,7.473 13.871,10.034 21.344,5.719 l 13.56,-7.829 z"
         inkscape:connector-curvature="0"
         style="fill:#d3effb" />
      <path
         id="path256"
         d="m 436.209,205.063 -23.987,-41.547 -13.56,7.829 c -7.473,4.315 -10.034,13.871 -5.719,21.344 l 7.764,13.448 c 4.092,7.088 12.96,9.817 20.329,6.256 z"
         inkscape:connector-curvature="0"
         style="fill:#b1e4f9" />
      <path
         id="path258"
         d="m 50.472,125.021 c 3.312,12.36 16.016,19.694 28.376,16.383 l 5.944,-1.593 c 0.095,-0.026 0.197,0.002 0.267,0.072 0.07,0.07 0.097,0.172 0.071,0.267 -2.156,8.045 2.807,16.321 11.027,18.14 7.744,1.714 15.403,-3.323 17.456,-10.985 l 4.393,-16.394 54.726,-9.85 c 12.373,-2.227 23.642,-7.615 32.925,-15.33 1.296,-1.077 3.244,-0.118 3.199,1.566 -0.255,9.643 2.073,19.439 7.191,28.305 l 6.616,11.459 c 0.389,0.675 0.792,1.338 1.206,1.99 10.072,15.84 5.062,36.852 -11.194,46.237 l -108.858,62.849 c 6.847,-2.552 14.474,-4.804 27.928,-4.804 31.062,0 31.062,12 62.124,12 31.061,0 31.061,-12 62.122,-12 31.062,0 31.062,12 62.124,12 11.321,0 18.516,-1.594 24.592,-3.62 l -0.507,-0.878 c -6.629,-11.484 -2.694,-26.167 8.789,-32.797 l 9.916,-5.725 c -9.762,-4.511 -17.778,-11.266 -21.087,-16.996 -3.304,-5.723 -5.146,-16.025 -4.179,-26.72 l -9.898,5.715 c -11.483,6.63 -26.166,2.695 -32.796,-8.788 L 281.436,155.589 236.918,78.482 C 232.701,71.177 224.103,67.616 215.955,69.799 L 57.903,112.15 c -5.606,1.502 -8.933,7.265 -7.431,12.871 z"
         inkscape:connector-curvature="0"
         style="fill:#d59b8b" />
      <path
         id="path260"
         d="m 502.494,245.851 c -30.633,0.498 -31.747,11.984 -60.123,11.984 -28.976,0 -29.513,-12 -62.129,-12 -16.677,0 -25.605,3.353 -33.411,6.366 -1.409,-6.787 1.586,-14.017 7.909,-17.667 l 6.685,-3.859 c 12.506,4.963 26.317,6.135 38.386,0.305 7.209,-3.483 37.807,-18.266 40.13,-19.389 11.006,-5.317 19.756,-13.858 25.305,-24.699 1.888,-3.687 0.429,-8.206 -3.259,-10.094 -3.685,-1.887 -8.205,-0.428 -10.093,3.259 -3.065,5.989 -7.473,11.016 -12.923,14.792 -0.062,-0.108 -20.316,-35.187 -20.254,-35.081 l -0.007,-0.012 -20.22,-35.022 c 18.56,-8.672 41.153,-2.581 52.183,15.993 1.863,3.137 3.296,6.488 4.258,9.959 1.107,3.992 5.241,6.33 9.23,5.224 3.992,-1.106 6.331,-5.239 5.225,-9.231 -1.317,-4.752 -3.274,-9.333 -5.815,-13.612 -16.516,-27.812 -52.578,-35.639 -79.552,-17.298 -25.546,17.366 -5.576,3.791 -36.426,24.766 -11.386,7.741 -17.056,20.585 -18.935,33.436 l -6.665,3.848 c -7.899,4.562 -17.987,1.861 -22.551,-6.042 L 243.415,74.735 C 237.513,64.508 225.42,59.501 214.017,62.557 L 55.962,104.905 c -4.646,1.245 -8.53,4.225 -10.936,8.391 -2.405,4.167 -3.044,9.02 -1.798,13.666 4.187,15.626 19.47,24.826 34.564,22.333 1.956,7.918 8.188,14.423 16.745,16.316 11.611,2.567 23.174,-4.621 26.32,-16.367 l 3.161,-11.796 50.041,-9.007 c 9.927,-1.786 19.422,-5.478 27.93,-10.815 1.121,7.62 3.675,14.992 7.563,21.725 6.66,11.502 6.727,11.737 7.987,13.725 7.792,12.251 3.957,28.459 -8.614,35.717 l -26.437,15.263 c -3.587,2.071 -4.816,6.658 -2.745,10.245 2.085,3.613 6.683,4.803 10.245,2.745 l 26.437,-15.263 c 19.922,-11.502 26.179,-37.246 13.774,-56.754 -0.939,-1.475 -0.982,-1.641 -7.657,-13.178 -4.274,-7.402 -6.415,-15.824 -6.189,-24.358 0.097,-3.708 -1.995,-7.149 -5.329,-8.766 -3.329,-1.615 -7.317,-1.129 -10.161,1.236 -8.454,7.026 -18.641,11.77 -29.46,13.716 l -54.726,9.85 c -2.859,0.515 -5.164,2.634 -5.916,5.44 l -4.393,16.394 c -1.048,3.907 -4.91,6.418 -8.592,5.603 -4.021,-0.891 -6.464,-4.916 -5.4,-8.885 0.709,-2.662 -0.056,-5.529 -2.033,-7.521 -1.952,-1.938 -4.815,-2.704 -7.494,-1.995 l -5.944,1.593 c -8.362,2.241 -16.948,-2.712 -19.189,-11.081 -0.434,-1.622 0.54,-3.259 2.128,-3.684 l 158.054,-42.35 c 4.855,-1.302 10.01,0.831 12.525,5.188 l 56.027,97.042 c 8.574,14.851 27.146,19.875 41.857,12.183 0.752,7.12 2.567,13.368 5.016,17.61 2.453,4.248 6.968,8.953 12.771,13.17 -11.698,7.425 -16.934,21.481 -13.629,34.408 -3.91,0.734 -8.514,1.189 -14.35,1.189 -29.098,0 -29.491,-12 -62.125,-12 -32.319,0 -33.341,12 -62.121,12 -26.899,0 -28.357,-9.836 -54.219,-11.724 l 19,-10.969 c 3.587,-2.071 4.816,-6.658 2.745,-10.245 -2.07,-3.587 -6.659,-4.817 -10.245,-2.745 l -50.548,29.184 c -0.892,0.336 -1.763,0.673 -2.621,1.004 -7.315,2.826 -14.227,5.496 -28.359,5.496 -28.459,0 -29.319,-11.483 -60.114,-11.984 C 4.452,245.727 0,249.839 0,255.191 v 185.803 c 0,5.15 4.189,9.34 9.34,9.34 h 493.319 c 5.15,0 9.341,-4.19 9.341,-9.34 v -112.44 c 0,-4.142 -3.357,-7.5 -7.5,-7.5 -4.143,0 -7.5,3.358 -7.5,7.5 v 106.78 H 15 V 261.113 c 21.4,1.703 25.051,11.721 54.622,11.721 32.425,0 33.238,-12 62.124,-12 29.096,0 29.492,12 62.124,12 32.319,0 33.341,-12 62.121,-12 28.974,0 29.511,12 62.125,12 32.759,0 32.88,-12 62.126,-12 28.976,0 29.513,12 62.129,12 29.628,0 33.142,-10.011 54.629,-11.721 v 32.441 c 0,4.142 3.357,7.5 7.5,7.5 4.143,0 7.5,-3.358 7.5,-7.5 v -38.363 c 0,-5.362 -4.447,-9.438 -9.506,-9.34 z m -93.018,-72.09 16.201,28.061 c -2.96,1.43 -7.808,3.772 -7.911,3.822 -3.813,1.839 -8.449,0.406 -10.564,-3.257 l -7.765,-13.448 c -2.24,-3.88 -0.906,-8.859 2.974,-11.1 z m -31.01,-36.081 c 0.206,-0.14 1.192,-0.811 7.309,-4.97 l 16.201,28.061 -7.065,4.079 c -3.887,2.245 -8.854,0.915 -11.099,-2.974 l -7.765,-13.449 c -2.105,-3.648 -1.041,-8.356 2.419,-10.747 z m -22.441,15.258 4.593,-3.123 c 0.504,2.102 1.312,4.16 2.439,6.113 l 7.765,13.449 c 2.922,5.061 7.543,8.759 13.086,10.496 -1.212,5.454 -0.468,11.358 2.539,16.567 l 7.765,13.448 c 1.127,1.953 2.506,3.682 4.074,5.17 l -5.001,2.416 c -17.07,8.247 -41.773,-6.904 -46.971,-15.906 -5.197,-9.002 -5.965,-37.972 9.711,-48.63 z"
         inkscape:connector-curvature="0" />
      <path
         id="path262"
         d="m 227.634,326.55 c 7.315,-2.827 14.226,-5.496 28.357,-5.496 4.143,0 7.5,-3.358 7.5,-7.5 0,-4.142 -3.357,-7.5 -7.5,-7.5 -16.929,0 -25.872,3.456 -33.764,6.504 -7.315,2.827 -14.226,5.496 -28.357,5.496 -14.131,0 -21.043,-2.669 -28.358,-5.496 -7.892,-3.048 -16.836,-6.504 -33.766,-6.504 -16.929,0 -25.873,3.455 -33.765,6.504 -7.315,2.826 -14.227,5.496 -28.359,5.496 -4.143,0 -7.5,3.358 -7.5,7.5 0,4.142 3.357,7.5 7.5,7.5 16.93,0 25.874,-3.456 33.766,-6.504 7.315,-2.827 14.227,-5.496 28.358,-5.496 14.133,0 21.044,2.67 28.359,5.496 7.892,3.049 16.836,6.504 33.765,6.504 16.929,0 25.872,-3.455 33.764,-6.504 z"
         inkscape:connector-curvature="0" />
      <path
         id="path264"
         d="m 193.87,393.274 c 16.929,0 25.872,-3.456 33.764,-6.504 7.315,-2.827 14.226,-5.496 28.357,-5.496 14.133,0 21.044,2.669 28.359,5.496 7.892,3.048 16.836,6.504 33.766,6.504 16.93,0 25.874,-3.455 33.765,-6.504 7.317,-2.826 14.228,-5.496 28.361,-5.496 14.133,0 21.045,2.67 28.362,5.496 7.892,3.049 16.836,6.504 33.767,6.504 4.143,0 7.5,-3.358 7.5,-7.5 0,-4.142 -3.357,-7.5 -7.5,-7.5 -14.134,0 -21.045,-2.67 -28.362,-5.496 -7.892,-3.049 -16.836,-6.504 -33.767,-6.504 -16.931,0 -25.875,3.456 -33.767,6.504 -7.316,2.827 -14.227,5.496 -28.359,5.496 -14.132,0 -21.044,-2.669 -28.359,-5.496 -7.892,-3.048 -16.836,-6.504 -33.766,-6.504 -16.929,0 -25.872,3.456 -33.764,6.504 -7.315,2.827 -14.226,5.496 -28.357,5.496 -4.143,0 -7.5,3.358 -7.5,7.5 0,4.142 3.358,7.5 7.5,7.5 z"
         inkscape:connector-curvature="0" />
      <path
         id="path266"
         d="m 287.996,242.931 c 4.014,-1.023 6.438,-5.107 5.414,-9.121 l -5.538,-21.711 c -1.024,-4.015 -5.117,-6.438 -9.121,-5.414 -4.014,1.023 -6.438,5.107 -5.414,9.121 l 5.538,21.711 c 1.024,4.016 5.11,6.439 9.121,5.414 z"
         inkscape:connector-curvature="0" />
    </g>
    <g
       id="g339"
       transform="matrix(0.33110141,0,0,0.36372441,255.4363,154.77129)">
      <g
         id="g321">
        <path
           id="path319"
           d="m 418.76,423.776 c -51.347,0 -93.121,-41.774 -93.121,-93.121 0,-51.347 41.774,-93.121 93.121,-93.121 51.347,0 93.121,41.774 93.121,93.121 0,51.347 -41.774,93.121 -93.121,93.121 z m 0,-156.241 c -34.805,0 -63.121,28.316 -63.121,63.121 0,34.805 28.316,63.121 63.121,63.121 34.805,0 63.121,-28.316 63.121,-63.121 0,-34.805 -28.316,-63.121 -63.121,-63.121 z"
           inkscape:connector-curvature="0"
           style="fill:#07485e" />
      </g>
      <g
         id="g325">
        <path
           id="path323"
           d="m 418.76,423.776 c -51.347,0 -93.121,-41.774 -93.121,-93.121 0,-51.347 41.774,-93.121 93.121,-93.121 51.347,0 93.121,41.774 93.121,93.121 0,51.347 -41.774,93.121 -93.121,93.121 z m 0,-156.241 c -34.805,0 -63.121,28.316 -63.121,63.121 0,34.805 28.316,63.121 63.121,63.121 34.805,0 63.121,-28.316 63.121,-63.121 0,-34.805 -28.316,-63.121 -63.121,-63.121 z"
           inkscape:connector-curvature="0"
           style="fill:#04303e" />
      </g>
      <g
         id="g329">
        <path
           id="path327"
           d="M 93.13,423.795 C 41.778,423.795 0,382.017 0,330.665 c 0,-51.352 41.778,-93.13 93.13,-93.13 51.352,0 93.13,41.778 93.13,93.13 0,51.352 -41.778,93.13 -93.13,93.13 z m 0,-156.26 c -34.81,0 -63.13,28.32 -63.13,63.13 0,34.81 28.32,63.13 63.13,63.13 34.81,0 63.13,-28.32 63.13,-63.13 0,-34.81 -28.32,-63.13 -63.13,-63.13 z"
           inkscape:connector-curvature="0"
           style="fill:#07485e" />
      </g>
      <path
         id="path331"
         d="m 433.452,146.78 v -4.768 c 0,-29.735 -24.191,-53.926 -53.926,-53.926 H 307.15 l 36.312,92.243 H 169.968 L 181.556,148.013 153.317,137.887 86.71,323.635 99.701,336.623 H 262.833 L 360.355,223.243 404.802,336.15 432.717,325.161 351.2,118.086 h 28.324 c 13.193,0 23.926,10.733 23.926,23.926 v 4.768 z m -251.67,63.549 h 150.111 l -75.826,88.155 z m -27.544,13.868 69.457,82.426 h -99.014 z"
         inkscape:connector-curvature="0"
         style="fill:#ff9f00" />
      <path
         id="path333"
         d="m 433.452,146.78 v -4.768 c 0,-29.735 -24.191,-53.926 -53.926,-53.926 H 307.15 l 36.312,92.243 h -87.511 v 30 h 75.942 l -75.826,88.155 -0.116,-0.138 v 38.277 h 6.882 L 360.355,223.243 404.802,336.15 432.717,325.161 351.2,118.086 h 28.324 c 13.193,0 23.926,10.733 23.926,23.926 v 4.768 z"
         inkscape:connector-curvature="0"
         style="fill:#ff7816" />
      <g
         id="g337">
        <path
           id="path335"
           d="m 130.035,127.949 h 78.893 v 30 h -78.893 z"
           inkscape:connector-curvature="0"
           style="fill:#07485e" />
      </g>
    </g>
    <g
       id="g396"
       transform="matrix(0.26458333,0,0,0.26458333,-414.71547,154.42738)">
      <circle
         id="circle382"
         cy="358.85715"
         cx="1053.1428"
         style="fill:#ff6b6b"
         r="256" />
      <path
         id="path384"
         d="M 1306.2857,356 H 794.28572 c 0,141.385 114.615,256 255.99998,256 141.385,0 256,-114.615 256,-256 z"
         inkscape:connector-curvature="0"
         style="fill:#ff1f3d" />
      <g
         id="g390"
         transform="translate(794.28572,100)">
        <g
           id="g388">
          <path
             id="path386"
             d="m 185.999,401 c -2.333,0 -4.673,-0.543 -6.827,-1.645 C 174.156,396.791 171,391.633 171,386 V 126 c 0,-5.633 3.156,-10.791 8.171,-13.355 5.015,-2.564 11.044,-2.103 15.611,1.195 l 180,130 c 3.905,2.82 6.218,7.344 6.218,12.16 0,4.816 -2.313,9.34 -6.218,12.16 l -180,130 c -2.605,1.882 -5.686,2.84 -8.783,2.84 z"
             inkscape:connector-curvature="0"
             style="fill:#f9f9f9" />
        </g>
      </g>
      <g
         id="g394"
         transform="translate(794.28572,100)">
        <path
           id="path392"
           d="m 171,256 v 130 c 0,5.633 3.156,10.791 8.171,13.355 2.154,1.102 4.495,1.645 6.827,1.645 3.097,0 6.179,-0.958 8.784,-2.84 l 180,-130 C 378.686,265.34 381,260.816 381,256 Z"
           inkscape:connector-curvature="0"
           style="fill:#e2dff4" />
      </g>
    </g>
    <g
       id="g458"
       transform="matrix(0.26458333,0,0,0.26458333,274.7131,-154.75714)">
      <g
         id="g450">
        <path
           id="path440"
           d="M 205,0 C 91.782,0 0,91.782 0,205 0,318.218 91.782,410 205,410 318.218,410 410,318.218 410,205 410,91.782 318.218,0 205,0 Z m 0,270 c -35.841,0 -65,-29.158 -65,-65 0,-35.842 29.159,-65 65,-65 35.841,0 65,29.158 65,65 0,35.842 -29.159,65 -65,65 z"
           inkscape:connector-curvature="0"
           style="fill:#0d8ebc" />
        <g
           id="g448">
          <path
             id="path442"
             d="m 270,205 c 0,35.842 -29.159,65 -65,65 V 410 C 318.218,410 410,318.218 410,205 410,91.782 318.218,0 205,0 v 140 c 35.841,0 65,29.158 65,65 z"
             inkscape:connector-curvature="0"
             style="fill:#0a617d" />
          <path
             id="path444"
             d="m 205,100 c -57.897,0 -105,47.103 -105,105 0,57.897 47.103,105 105,105 57.897,0 105,-47.103 105,-105 0,-57.897 -47.103,-105 -105,-105 z m 0,150 c -24.813,0 -45,-20.187 -45,-45 0,-24.813 20.187,-45 45,-45 24.813,0 45,20.187 45,45 0,24.813 -20.187,45 -45,45 z"
             inkscape:connector-curvature="0"
             style="fill:#f9f9f9" />
          <path
             id="path446"
             d="m 205,160 c 24.813,0 45,20.187 45,45 0,24.813 -20.187,45 -45,45 v 60 c 57.897,0 105,-47.103 105,-105 0,-57.897 -47.103,-105 -105,-105 z"
             inkscape:connector-curvature="0"
             style="fill:#d5d3ea" />
        </g>
      </g>
      <path
         id="path452"
         d="m 506.231,235.177 c -3.641,-2.843 -8.389,-3.85 -12.869,-2.729 l -160,40 C 326.685,274.117 322,280.117 322,287 V 433.266 C 318.803,432.44 315.452,432 312,432 c -22.056,0 -40,17.944 -40,40 0,22.056 17.944,40 40,40 22.056,0 40,-17.944 40,-40 V 348.711 l 130,-32.5 v 97.055 C 478.803,412.44 475.452,412 472,412 c -22.056,0 -40,17.944 -40,40 0,22.056 17.944,40 40,40 22.056,0 40,-17.944 40,-40 V 247 c 0,-4.619 -2.128,-8.98 -5.769,-11.823 z"
         inkscape:connector-curvature="0"
         style="fill:#ff6b6b" />
      <g
         id="g456">
        <path
           id="path454"
           d="m 506.231,235.177 c -3.641,-2.843 -8.389,-3.85 -12.869,-2.729 l -80,20 V 333.37 L 482,316.211 v 97.055 C 478.803,412.44 475.452,412 472,412 c -22.056,0 -40,17.944 -40,40 0,22.056 17.944,40 40,40 22.056,0 40,-17.944 40,-40 V 247 c 0,-4.619 -2.128,-8.98 -5.769,-11.823 z"
           inkscape:connector-curvature="0"
           style="fill:#ec3d93" />
      </g>
    </g>
    <g
       id="g656"
       transform="matrix(2.6250572,0,0,2.3865482,-192.34162,-157.98168)">
      <circle
         id="circle550"
         r="29"
         cy="29.5"
         cx="29.5"
         style="fill:#e6e7e8;stroke:#ecf0f1;stroke-miterlimit:10" />
      <polygon
         id="polygon552"
         points="29.863,18.5 40.863,26.5 36.863,38.5 23.467,38.5 18.863,26.5 "
         style="fill:#38454f" />
      <g
         id="g574">
	<path
   id="path554"
   d="m 24.31,37.605 c -0.494,-0.248 -1.095,-0.047 -1.342,0.447 l -0.447,0.895 c -0.247,0.494 -0.047,1.095 0.447,1.342 0.144,0.072 0.296,0.105 0.446,0.105 0.367,0 0.72,-0.202 0.896,-0.553 l 0.447,-0.895 c 0.248,-0.493 0.048,-1.093 -0.447,-1.341 z"
   style="fill:#38454f"
   inkscape:connector-curvature="0" />

	<path
   id="path556"
   d="m 22.521,41.183 c -0.494,-0.248 -1.094,-0.047 -1.342,0.447 l -0.447,0.895 c -0.247,0.494 -0.047,1.095 0.447,1.342 0.144,0.072 0.296,0.105 0.446,0.105 0.367,0 0.72,-0.202 0.896,-0.553 l 0.447,-0.895 c 0.248,-0.493 0.048,-1.094 -0.447,-1.341 z"
   style="fill:#38454f"
   inkscape:connector-curvature="0" />

	<path
   id="path558"
   d="m 38.205,38.947 -0.447,-0.895 c -0.248,-0.495 -0.847,-0.695 -1.342,-0.447 -0.494,0.247 -0.694,0.848 -0.447,1.342 l 0.447,0.895 c 0.176,0.351 0.528,0.553 0.896,0.553 0.15,0 0.303,-0.034 0.446,-0.105 0.494,-0.248 0.694,-0.849 0.447,-1.343 z"
   style="fill:#38454f"
   inkscape:connector-curvature="0" />

	<path
   id="path560"
   d="m 39.547,41.63 c -0.247,-0.495 -0.848,-0.695 -1.342,-0.447 -0.494,0.247 -0.694,0.848 -0.447,1.342 l 0.447,0.895 c 0.176,0.351 0.528,0.553 0.896,0.553 0.15,0 0.303,-0.034 0.446,-0.105 0.494,-0.247 0.694,-0.848 0.447,-1.342 z"
   style="fill:#38454f"
   inkscape:connector-curvature="0" />

	<path
   id="path562"
   d="m 16.853,24.551 -0.919,-0.394 c -0.509,-0.218 -1.097,0.017 -1.313,0.525 -0.218,0.507 0.018,1.096 0.524,1.313 l 0.919,0.394 c 0.129,0.055 0.263,0.082 0.395,0.082 0.388,0 0.757,-0.228 0.919,-0.606 0.218,-0.509 -0.018,-1.096 -0.525,-1.314 z"
   style="fill:#38454f"
   inkscape:connector-curvature="0" />

	<path
   id="path564"
   d="m 13.177,22.975 -0.919,-0.394 c -0.509,-0.216 -1.097,0.018 -1.313,0.525 -0.218,0.507 0.018,1.095 0.524,1.313 l 0.919,0.394 c 0.129,0.055 0.263,0.082 0.395,0.082 0.388,0 0.757,-0.228 0.919,-0.606 0.217,-0.508 -0.019,-1.097 -0.525,-1.314 z"
   style="fill:#38454f"
   inkscape:connector-curvature="0" />

	<path
   id="path566"
   d="m 29.863,10.5 c -0.553,0 -1,0.448 -1,1 v 1 c 0,0.552 0.447,1 1,1 0.553,0 1,-0.448 1,-1 v -1 c 0,-0.552 -0.447,-1 -1,-1 z"
   style="fill:#38454f"
   inkscape:connector-curvature="0" />

	<path
   id="path568"
   d="m 29.863,14.5 c -0.553,0 -1,0.448 -1,1 v 1 c 0,0.552 0.447,1 1,1 0.553,0 1,-0.448 1,-1 v -1 c 0,-0.552 -0.447,-1 -1,-1 z"
   style="fill:#38454f"
   inkscape:connector-curvature="0" />

	<path
   id="path570"
   d="m 43.792,24.157 -0.919,0.394 c -0.507,0.218 -0.742,0.806 -0.524,1.313 0.162,0.379 0.531,0.606 0.919,0.606 0.132,0 0.266,-0.026 0.395,-0.082 l 0.919,-0.394 c 0.507,-0.217 0.742,-0.806 0.524,-1.313 -0.218,-0.508 -0.806,-0.743 -1.314,-0.524 z"
   style="fill:#38454f"
   inkscape:connector-curvature="0" />

	<path
   id="path572"
   d="m 48.782,23.106 c -0.218,-0.509 -0.806,-0.742 -1.313,-0.525 l -0.919,0.394 c -0.507,0.217 -0.742,0.806 -0.524,1.313 0.162,0.379 0.531,0.606 0.919,0.606 0.132,0 0.266,-0.026 0.395,-0.082 l 0.919,-0.394 C 48.765,24.201 49,23.613 48.782,23.106 Z"
   style="fill:#38454f"
   inkscape:connector-curvature="0" />

</g>
      <path
         id="path576"
         d="m 22.345,1.49 -2.497,3.59 10.015,6.42 9,-6.882 -2.266,-3.24 C 34.382,0.821 32.066,0.519 29.682,0.504 27.145,0.52 24.687,0.863 22.345,1.49 Z"
         style="fill:#435159"
         inkscape:connector-curvature="0" />
      <path
         id="path578"
         d="m 49.493,12.5 -1.63,11 10.007,6.077 0.603,-1.151 C 58.264,22.707 56.402,17.412 53.347,13.004 Z"
         style="fill:#435159"
         inkscape:connector-curvature="0" />
      <path
         id="path580"
         d="m 50.666,49.314 0.197,-4.81 -11,-0.004 -4.793,10.605 4.146,1.722 c 4.406,-1.567 8.318,-4.169 11.45,-7.513 z"
         style="fill:#435159"
         inkscape:connector-curvature="0" />
      <path
         id="path582"
         d="m 20.863,44.5 -12,0.004 0.214,5.208 c 3.114,3.202 6.96,5.685 11.27,7.182 l 4.309,-1.789 z"
         style="fill:#435159"
         inkscape:connector-curvature="0" />
      <path
         id="path584"
         d="m 11.863,23.5 -1.63,-11 -4.254,0.556 c -2.92,4.233 -4.743,9.278 -5.061,14.729 l 0.939,1.792 z"
         style="fill:#435159"
         inkscape:connector-curvature="0" />
      <g
         id="g586">
</g>
      <g
         id="g588">
</g>
      <g
         id="g590">
</g>
      <g
         id="g592">
</g>
      <g
         id="g594">
</g>
      <g
         id="g596">
</g>
      <g
         id="g598">
</g>
      <g
         id="g600">
</g>
      <g
         id="g602">
</g>
      <g
         id="g604">
</g>
      <g
         id="g606">
</g>
      <g
         id="g608">
</g>
      <g
         id="g610">
</g>
      <g
         id="g612">
</g>
      <g
         id="g614">
</g>
    </g>
    <g
       id="Page-1"
       transform="matrix(2.2577778,0,0,2.2577778,48.683332,10.776268)"
       style="fill:none;fill-rule:evenodd">
      <g
         id="001---Book"
         style="fill-rule:nonzero">
        <rect
           y="9"
           x="1"
           width="58"
           rx="4"
           height="46"
           id="Rectangle-path"
           style="fill:#91562d" />
        <path
           d="m 55,9 h -3 c 2.209139,0 4,1.790861 4,4 v 38 c 0,2.209139 -1.790861,4 -4,4 h 3 c 2.209139,0 4,-1.790861 4,-4 V 13 C 59,10.790861 57.209139,9 55,9 Z"
           id="Shape"
           inkscape:connector-curvature="0"
           style="fill:#6d4122" />
        <path
           d="M 30,51 H 8 C 6.3431457,51 5,49.656854 5,48 v -6 c 0,1.656854 1.3431457,3 3,3 h 16 c 3.311653,0.005 5.995044,2.688347 6,6 z"
           id="path730"
           inkscape:connector-curvature="0"
           style="fill:#9e9e9e" />
        <path
           d="M 28.24,46.76 C 27.11939,45.629198 25.591998,44.995186 24,45 l -3,-2.7e-5 c 3.311653,0.005 5.995044,2.688374 6,6.000027 h 3.000027 C 30.004814,49.408002 29.370802,47.88061 28.24,46.76 Z"
           id="path732"
           inkscape:connector-curvature="0"
           style="fill:#707070" />
        <path
           d="M 30,9 V 51 C 29.995,47.688347 27.311653,45.004956 24,45 H 8 C 6.3431457,45 5,43.656854 5,42 V 6 C 5,4.3431457 6.3431457,3 8,3 h 16 c 3.313709,0 6,2.6862915 6,6 z"
           id="path734"
           inkscape:connector-curvature="0"
           style="fill:#f5f5f5" />
        <path
           d="m 24,3 h -3 c 3.313709,0 6,2.6862915 6,6 v 36.809 c 1.854813,1.070876 2.99816,3.049247 3,5.191 V 9 C 30,5.6862915 27.313709,3 24,3 Z"
           id="path736"
           inkscape:connector-curvature="0"
           style="fill:#cfd8dc" />
        <path
           d="m 55,6 v 36 c 0,1.656854 -1.343146,3 -3,3 H 36 c -3.311653,0.005 -5.995044,2.688347 -6.000004,6 L 30,9 C 29.9972,6.4580027 31.601483,4.1919479 34,3.35 V 24 l 5,-4 5,4 V 3 h 8 c 1.656854,0 3,1.3431457 3,3 z"
           id="path738"
           inkscape:connector-curvature="0"
           style="fill:#f5f5f5" />
        <path
           d="m 52,3 h -3 c 1.656854,0 3,1.3431457 3,3 v 36 c 0,1.656854 -1.343146,3 -3,3 h 3 c 1.656854,0 3,-1.343146 3,-3 V 6 C 55,4.3431457 53.656854,3 52,3 Z"
           id="path740"
           inkscape:connector-curvature="0"
           style="fill:#cfd8dc" />
        <path
           d="m 55,42 v 6 c 0,1.656854 -1.343146,3 -3,3 H 30 c 0.005,-3.311653 2.688347,-5.995044 6,-6 h 16 c 1.656854,0 3,-1.343146 3,-3 z"
           id="path742"
           inkscape:connector-curvature="0"
           style="fill:#9e9e9e" />
        <path
           d="m 52,45 v 3 c 0,1.656854 -1.343146,3 -3,3 h 3 c 1.656854,0 3,-1.343146 3,-3 v -6 c 0,1.656854 -1.343146,3 -3,3 z"
           id="path744"
           inkscape:connector-curvature="0"
           style="fill:#707070" />
        <path
           d="m 44,3 v 21 l -5,-4 -5,4 V 3 c 0.0033,-1.1032019 0.896798,-1.9967052 2,-2 h 6 c 1.103202,0.00329 1.996705,0.8967981 2,2 z"
           id="path746"
           inkscape:connector-curvature="0"
           style="fill:#f44335" />
        <path
           d="m 42,1 h -3 c 1.103202,0.00329 1.996705,0.8967981 2,2 V 21.6 L 44,24 V 3 C 43.996705,1.8967981 43.103202,1.0032948 42,1 Z"
           id="path748"
           inkscape:connector-curvature="0"
           style="fill:#c81e1e" />
        <g
           id="g786"
           style="fill:#000000">
          <path
             d="M 56,8.1 V 6 C 56,3.790861 54.209139,2 52,2 H 44.816 C 44.393745,0.80564914 43.266785,0.00525139 42,0 H 36 C 34.469057,0.0047662 33.188515,1.1640708 33.032,2.687 31.771286,3.2736807 30.716733,4.2268208 30.006,5.422 28.746109,3.3034654 26.464853,2.0036885 24,2 H 8 C 5.790861,2 4,3.790861 4,6 V 8.1 C 1.6735832,8.5784326 0.00299829,10.624899 0,13 v 38 c 0.00330612,2.760053 2.2399468,4.996694 5,5 h 50 c 2.760053,-0.0033 4.996694,-2.239947 5,-5 V 13 C 59.997,10.624899 58.326417,8.5784326 56,8.1 Z M 35,3 c 0,-0.5522848 0.447715,-1 1,-1 h 6 c 0.552285,0 1,0.4477152 1,1 v 18.919 l -3.375,-2.7 c -0.365333,-0.2925 -0.884667,-0.2925 -1.25,0 L 35,21.919 Z m -2,2 v 19 c -1.44e-4,0.384543 0.220227,0.735105 0.566818,0.901682 C 33.91341,25.068259 34.324816,25.02134 34.625,24.781 l 4.375,-3.5 4.375,3.5 c 0.300184,0.24034 0.71159,0.287259 1.058182,0.120682 C 44.779773,24.735105 45.000144,24.384543 45,24 V 4 h 7 c 1.104569,0 2,0.8954305 2,2 v 36 c 0,1.104569 -0.895431,2 -2,2 H 36 c -1.856259,-0.0085 -3.637938,0.72992 -4.944,2.049 -0.02,0.02 -0.037,0.042 -0.056,0.061 V 9 C 30.9984,7.4258415 31.739726,5.943233 33,5 Z M 54,45.46 V 48 c 0,1.104569 -0.895431,2 -2,2 H 31.1 c 0.481578,-2.324511 2.526137,-3.993539 4.9,-4 h 16 c 0.702434,0.0011 1.39258,-0.184216 2,-0.537 z M 6,6 C 6,4.8954305 6.8954305,4 8,4 h 16 c 2.760053,0.00331 4.996694,2.2399468 5,5 V 46.1 C 27.684506,44.754691 25.881588,43.997465 24,44 H 8 C 6.8954305,44 6,43.104569 6,42 Z M 6,45.463 C 6.6074196,45.815784 7.2975659,46.001088 8,46 h 16 c 2.375239,0.0026 4.421918,1.673371 4.9,4 H 8 C 6.8954305,50 6,49.104569 6,48 Z M 58,51 c 0,1.656854 -1.343146,3 -3,3 H 5 C 3.3431457,54 2,52.656854 2,51 V 13 C 2.00525,11.733215 2.8056491,10.606255 4,10.184 V 48 c 0,2.209139 1.790861,4 4,4 h 44 c 2.209139,0 4,-1.790861 4,-4 V 10.184 c 1.194351,0.422255 1.994749,1.549215 2,2.816 z"
             id="path750"
             inkscape:connector-curvature="0" />
          <path
             d="M 10,10 H 24 C 24.552285,10 25,9.5522848 25,9 25,8.4477152 24.552285,8 24,8 H 10 C 9.4477152,8 9,8.4477152 9,9 c 0,0.5522848 0.4477152,1 1,1 z"
             id="path752"
             inkscape:connector-curvature="0" />
          <path
             d="m 10,15 h 14 c 0.552285,0 1,-0.447715 1,-1 0,-0.552285 -0.447715,-1 -1,-1 H 10 c -0.5522848,0 -1,0.447715 -1,1 0,0.552285 0.4477152,1 1,1 z"
             id="path754"
             inkscape:connector-curvature="0" />
          <path
             d="m 10,20 h 14 c 0.552285,0 1,-0.447715 1,-1 0,-0.552285 -0.447715,-1 -1,-1 H 10 c -0.5522848,0 -1,0.447715 -1,1 0,0.552285 0.4477152,1 1,1 z"
             id="path756"
             inkscape:connector-curvature="0" />
          <path
             d="m 10,25 h 4 c 0.552285,0 1,-0.447715 1,-1 0,-0.552285 -0.447715,-1 -1,-1 h -4 c -0.5522848,0 -1,0.447715 -1,1 0,0.552285 0.4477152,1 1,1 z"
             id="path758"
             inkscape:connector-curvature="0" />
          <path
             d="m 24,23 h -6 c -0.552285,0 -1,0.447715 -1,1 0,0.552285 0.447715,1 1,1 h 6 c 0.552285,0 1,-0.447715 1,-1 0,-0.552285 -0.447715,-1 -1,-1 z"
             id="path760"
             inkscape:connector-curvature="0" />
          <path
             d="m 10,30 h 14 c 0.552285,0 1,-0.447715 1,-1 0,-0.552285 -0.447715,-1 -1,-1 H 10 c -0.5522848,0 -1,0.447715 -1,1 0,0.552285 0.4477152,1 1,1 z"
             id="path762"
             inkscape:connector-curvature="0" />
          <path
             d="m 10,35 h 14 c 0.552285,0 1,-0.447715 1,-1 0,-0.552285 -0.447715,-1 -1,-1 H 10 c -0.5522848,0 -1,0.447715 -1,1 0,0.552285 0.4477152,1 1,1 z"
             id="path764"
             inkscape:connector-curvature="0" />
          <path
             d="m 10,40 h 5 c 0.552285,0 1,-0.447715 1,-1 0,-0.552285 -0.447715,-1 -1,-1 h -5 c -0.5522848,0 -1,0.447715 -1,1 0,0.552285 0.4477152,1 1,1 z"
             id="path766"
             inkscape:connector-curvature="0" />
          <path
             d="m 24,38 h -5 c -0.552285,0 -1,0.447715 -1,1 0,0.552285 0.447715,1 1,1 h 5 c 0.552285,0 1,-0.447715 1,-1 0,-0.552285 -0.447715,-1 -1,-1 z"
             id="path768"
             inkscape:connector-curvature="0" />
          <path
             d="m 48,10 h 2 c 0.552285,0 1,-0.4477152 1,-1 0,-0.5522848 -0.447715,-1 -1,-1 h -2 c -0.552285,0 -1,0.4477152 -1,1 0,0.5522848 0.447715,1 1,1 z"
             id="path770"
             inkscape:connector-curvature="0" />
          <path
             d="m 48,15 h 2 c 0.552285,0 1,-0.447715 1,-1 0,-0.552285 -0.447715,-1 -1,-1 h -2 c -0.552285,0 -1,0.447715 -1,1 0,0.552285 0.447715,1 1,1 z"
             id="path772"
             inkscape:connector-curvature="0" />
          <path
             d="m 48,20 h 2 c 0.552285,0 1,-0.447715 1,-1 0,-0.552285 -0.447715,-1 -1,-1 h -2 c -0.552285,0 -1,0.447715 -1,1 0,0.552285 0.447715,1 1,1 z"
             id="path774"
             inkscape:connector-curvature="0" />
          <path
             d="m 48,25 h 2 c 0.552285,0 1,-0.447715 1,-1 0,-0.552285 -0.447715,-1 -1,-1 h -2 c -0.552285,0 -1,0.447715 -1,1 0,0.552285 0.447715,1 1,1 z"
             id="path776"
             inkscape:connector-curvature="0" />
          <path
             d="m 36,30 h 14 c 0.552285,0 1,-0.447715 1,-1 0,-0.552285 -0.447715,-1 -1,-1 H 36 c -0.552285,0 -1,0.447715 -1,1 0,0.552285 0.447715,1 1,1 z"
             id="path778"
             inkscape:connector-curvature="0" />
          <path
             d="m 36,35 h 14 c 0.552285,0 1,-0.447715 1,-1 0,-0.552285 -0.447715,-1 -1,-1 H 36 c -0.552285,0 -1,0.447715 -1,1 0,0.552285 0.447715,1 1,1 z"
             id="path780"
             inkscape:connector-curvature="0" />
          <path
             d="m 36,40 h 5 c 0.552285,0 1,-0.447715 1,-1 0,-0.552285 -0.447715,-1 -1,-1 h -5 c -0.552285,0 -1,0.447715 -1,1 0,0.552285 0.447715,1 1,1 z"
             id="path782"
             inkscape:connector-curvature="0" />
          <path
             d="m 50,38 h -5 c -0.552285,0 -1,0.447715 -1,1 0,0.552285 0.447715,1 1,1 h 5 c 0.552285,0 1,-0.447715 1,-1 0,-0.552285 -0.447715,-1 -1,-1 z"
             id="path784"
             inkscape:connector-curvature="0" />
        </g>
      </g>
    </g>
  </g>
</svg>
