<?xml version="1.0" encoding="UTF-8" standalone="no"?>
<svg
   xmlns:dc="http://purl.org/dc/elements/1.1/"
   xmlns:cc="http://creativecommons.org/ns#"
   xmlns:rdf="http://www.w3.org/1999/02/22-rdf-syntax-ns#"
   xmlns:svg="http://www.w3.org/2000/svg"
   xmlns="http://www.w3.org/2000/svg"
   xmlns:sodipodi="http://sodipodi.sourceforge.net/DTD/sodipodi-0.dtd"
   xmlns:inkscape="http://www.inkscape.org/namespaces/inkscape"
   id="Capa_1"
   enable-background="new 0 0 497 497"
   height="501.07574"
   viewBox="0 0 497 486.39579"
   width="512"
   version="1.1"
   sodipodi:docname="printer.svg"
   inkscape:version="0.92.4 (5da689c313, 2019-01-14)">
  <metadata
     id="metadata57">
    <rdf:RDF>
      <cc:Work
         rdf:about="">
        <dc:format>image/svg+xml</dc:format>
        <dc:type
           rdf:resource="http://purl.org/dc/dcmitype/StillImage" />
        <dc:title></dc:title>
      </cc:Work>
    </rdf:RDF>
  </metadata>
  <defs
     id="defs55" />
  <sodipodi:namedview
     pagecolor="#ffffff"
     bordercolor="#666666"
     borderopacity="1"
     objecttolerance="10"
     gridtolerance="10"
     guidetolerance="10"
     inkscape:pageopacity="0"
     inkscape:pageshadow="2"
     inkscape:window-width="1366"
     inkscape:window-height="745"
     id="namedview53"
     showgrid="false"
     fit-margin-top="0"
     fit-margin-left="0"
     fit-margin-right="0"
     fit-margin-bottom="0"
     showguides="true"
     inkscape:guide-bbox="true"
     inkscape:zoom="0.4609375"
     inkscape:cx="218.0339"
     inkscape:cy="217.3672"
     inkscape:window-x="-8"
     inkscape:window-y="-8"
     inkscape:window-maximized="1"
     inkscape:current-layer="Capa_1">
    <sodipodi:guide
       position="1463.6229,782.37993"
       orientation="0.70710678,0.70710678"
       id="guide63"
       inkscape:locked="false" />
  </sodipodi:namedview>
  <g
     id="g50"
     transform="translate(0,26.896799)">
    <path
       d="m 51.204,328.846 c -0.763,-1.271 -1.703,-2.228 -2.732,-2.885 0,0 -38.472,44.36 -38.472,74.42 0,34.2 18.06,49.118 45.96,49.118 15.532,0 30.144,-14.912 30.144,-14.912 C 88.6,429.366 90,423.587 90,417.5 90,392.201 78.939,375.04 51.204,328.846 Z"
       id="path2"
       inkscape:connector-curvature="0"
       style="fill:#9ec8fc" />
    <path
       d="m 20,394.891 c 0,-19.502 9.149,-36.61 28.472,-68.93 -3.219,-2.057 -7.323,-1.113 -9.711,2.863 C 12.372,372.772 0,392.201 0,414.891 c 0,24.218 19.469,44.608 45.429,44.608 18.148,0 33.714,-10.356 40.675,-24.912 -6.177,3.069 -13.205,4.912 -20.675,4.912 C 39.469,439.499 20,419.109 20,394.891 Z"
       id="path4"
       inkscape:connector-curvature="0"
       style="fill:#62a4fb" />
    <path
       d="M 20,67.501 10,284.9 90,274.9 V 67.501 Z"
       id="path6"
       inkscape:connector-curvature="0"
       style="fill:#9ec8fc" />
    <path
       d="M 20,267.4 V 67.501 H 0 V 287.4 c 0,4.142 3.358,7.5 7.5,7.5 h 75 c 4.142,0 7.5,-3.358 7.5,-7.5 V 274.9 H 27.5 c -4.142,0 -7.5,-3.358 -7.5,-7.5 z"
       id="path8"
       inkscape:connector-curvature="0"
       style="fill:#62a4fb" />
    <path
       d="m 90,67.501 v -22.5 c 0,-4.142 -3.358,-7.5 -7.5,-7.5 H 20 l -10,21.54 10,26.757 c 7.151,1.634 15.748,2.283 25,2.283 24.853,0 45,-4.674 45,-20.58 z"
       id="path10"
       inkscape:connector-curvature="0"
       style="fill:#dce6eb" />
    <path
       d="m 7.5,37.501 c -4.142,0 -7.5,3.358 -7.5,7.5 v 22.5 c 0,9.985 7.942,15.542 20,18.297 V 37.501 Z"
       id="path12"
       inkscape:connector-curvature="0"
       style="fill:#b9c3cd" />
    <path
       d="m 186.87,328.846 c -0.763,-1.271 -1.703,-2.228 -2.732,-2.885 0,0 -38.472,44.36 -38.472,74.42 0,34.2 18.06,49.118 45.96,49.118 15.532,0 30.144,-14.912 30.144,-14.912 2.497,-5.222 3.896,-11 3.896,-17.087 0.001,-25.299 -11.06,-42.46 -38.796,-88.654 z"
       id="path14"
       inkscape:connector-curvature="0"
       style="fill:#e175a5" />
    <path
       d="m 155.667,394.891 c 0,-19.502 9.149,-36.61 28.472,-68.93 -3.219,-2.057 -7.323,-1.113 -9.711,2.863 -26.389,43.948 -38.761,63.376 -38.761,86.067 0,24.218 19.469,44.608 45.429,44.608 18.148,0 33.714,-10.356 40.675,-24.912 -6.177,3.069 -13.205,4.912 -20.675,4.912 -25.96,0 -45.429,-20.39 -45.429,-44.608 z"
       id="path16"
       inkscape:connector-curvature="0"
       style="fill:#de5791" />
    <path
       d="m 155.667,217.501 -10,67.399 80,-10 v -57.399 z"
       id="path18"
       inkscape:connector-curvature="0"
       style="fill:#e175a5" />
    <path
       d="m 155.667,267.4 v -49.899 h -20 V 287.4 c 0,4.142 3.358,7.5 7.5,7.5 h 75 c 4.142,0 7.5,-3.358 7.5,-7.5 v -12.5 h -62.5 c -4.142,0 -7.5,-3.358 -7.5,-7.5 z"
       id="path20"
       inkscape:connector-curvature="0"
       style="fill:#de5791" />
    <path
       d="m 225.667,217.501 v -172.5 c 0,-4.142 -3.358,-7.5 -7.5,-7.5 h -62.5 l -10,171.54 10,26.757 c 7.151,1.634 15.748,2.283 25,2.283 24.852,0 45,-4.674 45,-20.58 z"
       id="path22"
       inkscape:connector-curvature="0"
       style="fill:#dce6eb" />
    <path
       d="m 143.167,37.501 c -4.142,0 -7.5,3.358 -7.5,7.5 v 172.5 c 0,9.985 7.942,15.542 20,18.297 V 37.501 Z"
       id="path24"
       inkscape:connector-curvature="0"
       style="fill:#b9c3cd" />
    <path
       d="m 322.537,328.846 c -0.763,-1.271 -1.703,-2.228 -2.732,-2.885 0,0 -38.472,44.36 -38.472,74.42 0,34.2 18.06,49.118 45.96,49.118 15.532,0 30.144,-14.912 30.144,-14.912 2.497,-5.222 3.896,-11 3.896,-17.087 0,-25.299 -11.06,-42.46 -38.796,-88.654 z"
       id="path26"
       inkscape:connector-curvature="0"
       style="fill:#fbf490" />
    <path
       d="m 291.333,394.891 c 0,-19.502 9.149,-36.61 28.472,-68.93 -3.219,-2.057 -7.323,-1.113 -9.711,2.863 -26.389,43.948 -38.761,63.376 -38.761,86.067 0,24.218 19.469,44.608 45.429,44.608 18.148,0 33.714,-10.356 40.675,-24.912 -6.177,3.069 -13.205,4.912 -20.675,4.912 -25.96,0 -45.429,-20.39 -45.429,-44.608 z"
       id="path28"
       inkscape:connector-curvature="0"
       style="fill:#f8e837" />
    <path
       d="m 291.333,147.501 -10,137.399 80,-10 V 147.501 Z"
       id="path30"
       inkscape:connector-curvature="0"
       style="fill:#fbf490" />
    <path
       d="M 291.333,267.4 V 147.501 h -20 V 287.4 c 0,4.142 3.358,7.5 7.5,7.5 h 75 c 4.142,0 7.5,-3.358 7.5,-7.5 v -12.5 h -62.5 c -4.142,0 -7.5,-3.358 -7.5,-7.5 z"
       id="path32"
       inkscape:connector-curvature="0"
       style="fill:#f8e837" />
    <path
       d="m 361.333,147.501 v -102.5 c 0,-4.142 -3.358,-7.5 -7.5,-7.5 h -62.5 l -10,101.54 10,26.757 c 7.151,1.634 15.748,2.283 25,2.283 24.853,0 45,-4.674 45,-20.58 z"
       id="path34"
       inkscape:connector-curvature="0"
       style="fill:#dce6eb" />
    <path
       d="m 278.833,37.501 c -4.142,0 -7.5,3.358 -7.5,7.5 v 102.5 c 0,9.985 7.942,15.542 20,18.297 V 37.501 Z"
       id="path36"
       inkscape:connector-curvature="0"
       style="fill:#b9c3cd" />
    <path
       d="m 458.204,328.846 c -0.763,-1.271 -1.703,-2.228 -2.732,-2.885 0,0 -38.472,44.36 -38.472,74.42 0,34.2 18.06,49.118 45.96,49.118 15.532,0 30.144,-14.912 30.144,-14.912 2.497,-5.222 3.896,-11 3.896,-17.087 0,-25.299 -11.061,-42.46 -38.796,-88.654 z"
       id="path38"
       inkscape:connector-curvature="0"
       style="fill:#4e5a61" />
    <path
       d="m 427,394.891 c 0,-19.502 9.149,-36.61 28.472,-68.93 -3.219,-2.057 -7.323,-1.113 -9.711,2.863 C 419.372,372.772 407,392.201 407,414.891 c 0,24.218 19.469,44.608 45.429,44.608 18.148,0 33.714,-10.356 40.675,-24.912 -6.177,3.069 -13.205,4.912 -20.675,4.912 -25.96,0 -45.429,-20.39 -45.429,-44.608 z"
       id="path40"
       inkscape:connector-curvature="0"
       style="fill:#3f4a4a" />
    <path
       d="m 427,107.501 -10,177.399 80,-10 V 107.501 Z"
       id="path42"
       inkscape:connector-curvature="0"
       style="fill:#4e5a61" />
    <path
       d="M 427,267.4 V 107.501 H 407 V 287.4 c 0,4.142 3.358,7.5 7.5,7.5 h 75 c 4.142,0 7.5,-3.358 7.5,-7.5 v -12.5 h -62.5 c -4.142,0 -7.5,-3.358 -7.5,-7.5 z"
       id="path44"
       inkscape:connector-curvature="0"
       style="fill:#3f4a4a" />
    <path
       d="m 497,107.501 v -62.5 c 0,-4.142 -3.358,-7.5 -7.5,-7.5 H 427 l -10,61.54 10,26.757 c 7.151,1.634 15.748,2.283 25,2.283 24.853,0 45,-4.674 45,-20.58 z"
       id="path46"
       inkscape:connector-curvature="0"
       style="fill:#dce6eb" />
    <path
       d="m 414.5,37.501 c -4.142,0 -7.5,3.358 -7.5,7.5 v 62.5 c 0,9.985 7.942,15.542 20,18.297 V 37.501 Z"
       id="path48"
       inkscape:connector-curvature="0"
       style="fill:#b9c3cd" />
  </g>
  <text
     xml:space="preserve"
     style="font-style:normal;font-variant:normal;font-weight:normal;font-stretch:normal;font-size:72.69979095px;line-height:1.25;font-family:Forte;-inkscape-font-specification:'Forte, Normal';font-variant-ligatures:normal;font-variant-caps:normal;font-variant-numeric:normal;text-align:start;letter-spacing:0px;word-spacing:0px;writing-mode:lr-tb;text-anchor:start;fill:#808000;fill-opacity:1;stroke:none;stroke-width:1.94731593"
     x="34.760014"
     y="49.73262"
     id="text61"
     transform="scale(0.82768124,1.2081946)"><tspan
       sodipodi:role="line"
       id="tspan59"
       x="34.760014"
       y="49.73262"
       style="fill:#808000;stroke-width:1.94731593">Graphics Designer</tspan></text>
</svg>
